<svg xmlns="http://www.w3.org/2000/svg" width="60" height="60" viewBox="0 0 60 60">
  <g id="icon-money" transform="translate(-183 -1090)">
    <rect id="사각형_26" data-name="사각형 26" width="60" height="60" transform="translate(183 1090)" fill="none"/>
    <path id="Icon_awesome-money-bill-wave-alt" data-name="Icon awesome-money-bill-wave-alt" d="M32.028,3.408a15.269,15.269,0,0,0-6-1.158c-6.351,0-12.7,3.214-19.052,3.214A15.644,15.644,0,0,1,2.2,4.757a1.763,1.763,0,0,0-.534-.084A1.641,1.641,0,0,0,0,6.314V22.672a1.64,1.64,0,0,0,.971,1.519,15.261,15.261,0,0,0,6,1.159c6.351,0,12.7-3.215,19.053-3.215a15.644,15.644,0,0,1,4.777.707,1.763,1.763,0,0,0,.534.084A1.641,1.641,0,0,0,33,21.286V4.928a1.642,1.642,0,0,0-.972-1.52ZM16.5,18.75c-2.279,0-4.125-2.217-4.125-4.95S14.222,8.85,16.5,8.85s4.125,2.216,4.125,4.95S18.777,18.75,16.5,18.75Z" transform="translate(196.5 1106.25)" fill="none" stroke="#231f20" stroke-width="2"/>
  </g>
</svg>
