<svg id="logo_black" xmlns="http://www.w3.org/2000/svg" width="131" height="39" viewBox="0 0 131 39">
  <g id="Logo">
    <path id="패스_1" data-name="패스 1" d="M70.421,64.275h-.075L67.58,56.349H66.159l3.421,9.31h1.608l3.421-9.31H73.188Z" transform="translate(-33.079 -28.174)" fill="#fff"/>
    <path id="패스_2" data-name="패스 2" d="M75.806,17.241l-2.318,2.318h-1.87l-.935-.916v-7.16H69.3v7.59l1.72,1.72h2.842l1.982-1.982v1.982h1.346v-9.31H75.806Z" transform="translate(-34.65 -5.741)" fill="#fff"/>
    <path id="패스_3" data-name="패스 3" d="M58.6,14.96V5.987L56.545,3.93H54.006V5.2h1.9L57.18,6.454v8.039l-1.271,1.252h-1.9v1.272h2.2l1.982,2.019.86-.86-1.832-1.832Z" transform="translate(-27.002 -1.965)" fill="#fff"/>
    <path id="패스_4" data-name="패스 4" d="M87.4,56.348l-1.72,1.72v5.87l1.72,1.72h4.693l1.72-1.72V62.8H92.424v.711l-.935.916h-3.5l-.935-.916V61.415h6.767V58.068l-1.738-1.72Zm5.048,3.87H87.059V58.5l.935-.916h3.515l.935.916Z" transform="translate(-42.837 -28.173)" fill="#fff"/>
    <path id="패스_5" data-name="패스 5" d="M37.034,5.986V14.96l2.057,2.057h2.55V15.745H39.726l-1.271-1.253V6.454L39.726,5.2h1.915V3.93h-2.55Z" transform="translate(-18.517 -1.965)" fill="#fff"/>
    <path id="패스_6" data-name="패스 6" d="M6.092,0,0,6.091V32.669l6.092,6.092h7.552V34.995H7.974L4.208,31.286V7.475L7.974,3.765h5.67V0Z" transform="translate(0 0)" fill="#fff"/>
    <rect id="사각형_1" data-name="사각형 1" width="1.383" height="9.31" transform="translate(73.554 5.742)" fill="#fff"/>
    <path id="패스_7" data-name="패스 7" d="M147.927,6.4l.56-.561V5.015l-.56-.561H147.1l-.561.561v.823l.561.561Z" transform="translate(-73.27 -2.227)" fill="#fff"/>
    <path id="패스_8" data-name="패스 8" d="M38.792,49.319l-.561.561V50.7l.561.561h.823l.561-.561v-.823l-.561-.561Z" transform="translate(-19.115 -24.659)" fill="#fff"/>
    <rect id="사각형_2" data-name="사각형 2" width="1.383" height="9.31" transform="translate(19.396 28.175)" fill="#fff"/>
    <path id="패스_9" data-name="패스 9" d="M50.868,56.348,48.886,58.33V56.348H47.54v9.31h1.384V59.9l2.318-2.318H53.13l.935.916v7.16h1.384v-7.59l-1.72-1.72Z" transform="translate(-23.77 -28.174)" fill="#fff"/>
    <path id="패스_10" data-name="패스 10" d="M91.919,11.483,90.2,13.2v1.16h1.384V13.6l.935-.916H95.7l.935.916v1.776H91.658l-1.533,1.514V19.26l1.533,1.533h3.291l1.72-1.645v1.645H98V13.2l-1.72-1.72Zm4.712,6.225L94.668,19.6H92.256l-.748-.73V17.3l.748-.729h4.375Z" transform="translate(-45.062 -5.741)" fill="#fff"/>
    <path id="패스_11" data-name="패스 11" d="M196.344,56.348l-1.982,1.982V56.348h-1.346v9.31H194.4V59.9l2.318-2.318h1.888l.934.916v7.16h1.384v-7.59l-1.72-1.72Z" transform="translate(-96.506 -28.174)" fill="#fff"/>
    <path id="패스_12" data-name="패스 12" d="M215.262,50.292h-1.346V53.32H212.2v1.216h1.683V60.91l1.72,1.72h2.58V61.415H216.2l-.935-.935V54.536h2.917V53.32h-2.917Z" transform="translate(-106.095 -25.146)" fill="#fff"/>
    <path id="패스_13" data-name="패스 13" d="M173.388,56.348l-1.72,1.72v5.87l1.72,1.72h4.693l1.72-1.72V62.8h-1.384v.711l-.935.916h-3.5l-.935-.916V61.415h6.767V58.068l-1.738-1.72Zm5.048,3.87h-5.384V58.5l.935-.916H177.5l.935.916Z" transform="translate(-85.832 -28.173)" fill="#fff"/>
    <path id="패스_14" data-name="패스 14" d="M183.408,17.241l-2.318,2.318h-1.87l-.935-.916v-7.16H176.9v7.59l1.72,1.72h2.842l1.982-1.982v1.982h1.346v-9.31h-1.384Z" transform="translate(-88.449 -5.741)" fill="#fff"/>
    <path id="패스_15" data-name="패스 15" d="M108.3,60.387l-.748-.748V58.274l.748-.73h3.178l.748.73v.767H113.6V57.882l-1.533-1.533H107.7l-1.533,1.533v2.187l1.477,1.477h4.02l.748.748v1.439l-.748.729h-3.44l-.747-.729v-.767h-1.384v1.159l1.533,1.533h4.636l1.533-1.533V61.92l-1.533-1.533Z" transform="translate(-53.044 -28.174)" fill="#fff"/>
    <path id="패스_16" data-name="패스 16" d="M206.57,11.483l-1.459,1.458-1.458-1.458h-2.225l-1.795,1.795V11.483h-1.346v9.31h1.384V14.736l2.019-2.019h1.57l.935.916v7.16h1.347V14.025l1.309-1.308h2.056l.935.916v7.16h1.383V13.2l-1.72-1.72Z" transform="translate(-99.142 -5.741)" fill="#fff"/>
    <path id="패스_17" data-name="패스 17" d="M233.771,0V3.765h5.67l3.765,3.711V31.286l-3.765,3.709h-5.67v3.766h7.552l6.092-6.092V6.091L241.323,0Z" transform="translate(-116.883 0)" fill="#fff"/>
    <path id="패스_18" data-name="패스 18" d="M119.195,20.793V13.2l-1.72-1.72h-2.86l-1.982,1.982V11.483h-1.346v9.31h1.384V15.035l2.318-2.318h1.888l.935.916v7.16Z" transform="translate(-55.642 -5.742)" fill="#fff"/>
    <path id="패스_19" data-name="패스 19" d="M163.761,20.793V13.2l-1.72-1.72h-2.86L157.2,13.465V11.483h-1.346v9.31h1.383V15.035l2.318-2.318h1.888l.934.916v7.16Z" transform="translate(-77.925 -5.742)" fill="#fff"/>
    <path id="패스_20" data-name="패스 20" d="M127.55,50.292H126.2V53.32h-1.72v1.216h1.683V60.91l1.72,1.72h2.58V61.415h-1.982l-.935-.935V54.536h2.917V53.32H127.55Z" transform="translate(-62.241 -25.146)" fill="#fff"/>
    <path id="패스_21" data-name="패스 21" d="M149.03,56.348l-1.458,1.458-1.459-1.458h-2.225l-1.795,1.8v-1.8h-1.346v9.31h1.384V59.6l2.019-2.019h1.57l.935.916v7.16H148V58.891l1.308-1.309h2.056l.935.916v7.16h1.383v-7.59l-1.72-1.72Z" transform="translate(-70.373 -28.174)" fill="#fff"/>
    <path id="패스_22" data-name="패스 22" d="M136.449,16.549h-1.982l-.935-.935V9.67h2.917V8.454h-2.917V5.426h-1.346V8.454h-1.721V9.67h1.683v6.374l1.72,1.72h2.58Z" transform="translate(-65.232 -2.713)" fill="#fff"/>
  </g>
  <rect id="사각형_3" data-name="사각형 3" width="131" height="39" transform="translate(0 0)" fill="none" opacity="0.437"/>
</svg>
